<svg xmlns="http://www.w3.org/2000/svg" xmlns:svg="http://www.w3.org/2000/svg" xmlns:xlink="http://www.w3.org/1999/xlink" id="Layer_1" width="110" height="117.4" x="0" y="0" enable-background="new 0 0 110 117.4" version="1.1" viewBox="0 0 110 117.4" xml:space="preserve"><metadata id="metadata99"/><defs id="defs97"><linearGradient id="linearGradient3123" x1="127278.453" x2="128916.859" y1="69960.617" y2="69960.617" gradientTransform="matrix(0.0311,0,0,0.0482,-3903.4512,-3296.7014)" gradientUnits="userSpaceOnUse" xlink:href="#SVGID_2_"/><linearGradient id="linearGradient3125" x1="127278.469" x2="128916.859" y1="69960.617" y2="69960.617" gradientTransform="matrix(0.0311,0,0,0.0482,-3954.4512,-3296.7014)" gradientUnits="userSpaceOnUse" xlink:href="#SVGID_3_"/><linearGradient id="linearGradient3127" x1="132585.734" x2="134224.531" y1="68200.352" y2="68200.352" gradientTransform="matrix(0.0299,0,0,0.0494,-3909.3132,-3295.6973)" gradientUnits="userSpaceOnUse" xlink:href="#SVGID_4_"/><linearGradient id="linearGradient3129" x1="132585.734" x2="134224.531" y1="68200.352" y2="68200.352" gradientTransform="matrix(0.0299,0,0,0.0494,-3958.3132,-3295.6973)" gradientUnits="userSpaceOnUse" xlink:href="#SVGID_5_"/><linearGradient id="linearGradient3131" x1="144587.063" x2="146225.469" y1="61600.461" y2="61600.461" gradientTransform="matrix(0.0275,0,0,0.0544,-3921.0376,-3281.7539)" gradientUnits="userSpaceOnUse" xlink:href="#SVGID_6_"/><linearGradient id="linearGradient3133" x1="144587.078" x2="146225.469" y1="62328.641" y2="62328.641" gradientTransform="matrix(0.0275,0,0,0.0538,-3966.0376,-3283.9314)" gradientUnits="userSpaceOnUse" xlink:href="#SVGID_7_"/><linearGradient id="linearGradient3135" x1="100782.68" x2="102421.08" y1="-115874.79" y2="-115874.79" gradientTransform="matrix(6e-4,0.0342,-0.036,7e-4,-4167.9482,-3334.4929)" gradientUnits="userSpaceOnUse" xlink:href="#SVGID_8_"/><linearGradient id="linearGradient3182" x1="100782.68" x2="102421.08" y1="-115874.79" y2="-115874.79" gradientTransform="matrix(6e-4,0.0342,-0.036,7e-4,-4167.9482,-3334.4929)" gradientUnits="userSpaceOnUse" xlink:href="#SVGID_8_"/></defs><g id="g12" transform="translate(0,-13.494253)"><path id="path14" fill="#e52d09" d="m 0,113.4 55,4 55,-4 v -74 H 0 v 74 z"/></g><g id="g16" transform="translate(0,-13.494253)"><path id="path18" fill="#5c512a" d="m 108,36.4 h -1 v 74.2 l -52,3.8 v 1 l 53,-4 v -75 z"/><linearGradient id="SVGID_2_" x1="127278.45" x2="128916.86" y1="69960.617" y2="69960.617" gradientTransform="matrix(0.0311,0,0,0.0482,-3903.4512,-3296.7014)" gradientUnits="userSpaceOnUse"><stop id="stop21" offset="0" stop-color="#665C37"/><stop id="stop23" offset="1" stop-color="#7D7040"/></linearGradient><path id="path25" fill="url(#linearGradient3123)" d="m 67.2,36.4 v 5.2 H 55 v 72.8 l 52,-3.8 V 36.4 H 67.2 z"/><linearGradient id="SVGID_3_" x1="127278.47" x2="128916.86" y1="69960.617" y2="69960.617" gradientTransform="matrix(0.0311,0,0,0.0482,-3954.4512,-3296.7014)" gradientUnits="userSpaceOnUse"><stop id="stop28" offset="0" stop-color="#9E8E51"/><stop id="stop30" offset="1" stop-color="#887B4D"/></linearGradient><path id="path32" fill="url(#linearGradient3125)" d="M 55,41.6 H 45.2 V 36.4 H 3 v 74 l 52,4 V 41.6 z"/><path id="path34" fill="#f2ebcd" d="M 3,36.4 H 2 v 75 l 1,-1 v -74 z"/><path id="path36" fill="#786c43" d="m 55,115.4 v -1 l -52,-4 -1,1 53,4 z"/></g><g id="g38" transform="translate(0,-13.494253)"><linearGradient id="SVGID_4_" x1="132585.73" x2="134224.53" y1="68200.352" y2="68200.352" gradientTransform="matrix(0.0299,0,0,0.0494,-3909.3132,-3295.6973)" gradientUnits="userSpaceOnUse"><stop id="stop41" offset="0" stop-color="#A09667"/><stop id="stop43" offset="1" stop-color="#B1A56D"/></linearGradient><path id="path45" fill="url(#linearGradient3127)" d="M 104,32.4 H 92 l -37,5 v 77 c 15.5,-6.5 31.8,-9.9 49,-10 v -72 z"/><path id="path47" fill="#5c512a" d="m 105,32.4 h -1 v 72 c -17.2,0.1 -33.5,3.5 -49,10 v 1 c 16.5,-6.9 33.2,-10.2 50,-10 v -73 z"/><linearGradient id="SVGID_5_" x1="132585.73" x2="134224.53" y1="68200.352" y2="68200.352" gradientTransform="matrix(0.0299,0,0,0.0494,-3958.3132,-3295.6973)" gradientUnits="userSpaceOnUse"><stop id="stop50" offset="0" stop-color="#C3B77F"/><stop id="stop52" offset="1" stop-color="#AAA070"/></linearGradient><path id="path54" fill="url(#linearGradient3129)" d="M 17,32.4 H 6 v 72 h 1 c 16.3,0.4 32.3,3.7 48,10 v -77 l -38,-5 z"/><path id="path56" fill="#f2ebcd" d="M 6,32.4 H 5 v 73 l 1,-1 v -72 z"/><path id="path58" fill="#786c43" d="m 55,115.4 v -1 C 39.3,108.1 23.3,104.8 7,104.4 H 6 l -1,1 c 17.9,0.3 34.5,3.6 50,10 z"/></g><g id="g60" transform="translate(0,-13.494253)"><linearGradient id="SVGID_6_" x1="144587.06" x2="146225.47" y1="61600.461" y2="61600.461" gradientTransform="matrix(0.0275,0,0,0.0544,-3921.0376,-3281.7539)" gradientUnits="userSpaceOnUse"><stop id="stop63" offset="0" stop-color="#F9F5E6"/><stop id="stop65" offset="1" stop-color="#EEE5BE"/></linearGradient><path id="path67" fill="url(#linearGradient3131)" d="m 101,25.4 h 1 c -17.5,-1.1 -33.2,2.9 -47,12 v 76 c 12.3,-10.1 27.7,-15.9 46,-17 v -71 z"/><path id="path69" fill="#5c512a" d="m 102,25.4 h -1 v 71 l 1,1 v -72 z"/><linearGradient id="SVGID_7_" x1="144587.08" x2="146225.47" y1="62328.641" y2="62328.641" gradientTransform="matrix(0.0275,0,0,0.0538,-3966.0376,-3283.9314)" gradientUnits="userSpaceOnUse"><stop id="stop72" offset="0" stop-color="#EDE1C1"/><stop id="stop74" offset="1" stop-color="#E5D49A"/></linearGradient><path id="path76" fill="url(#linearGradient3133)" d="m 8,25.4 h 1 v 71 c 20,1.6 35.3,7.2 46,17 v -76 C 42.1,28.6 26.5,24.6 8,25.4 z"/><path id="path78" fill="#f2ebcd" d="M 9,25.4 H 8 v 72 l 1,-1 v -71 z"/><path id="path80" fill="#8f8456" d="m 9,96.4 -1,1 c 20.3,1.2 35.9,6.9 47,17 12.8,-10.6 28.5,-16.3 47,-17 l -1,-1 c -18.3,1.1 -33.7,6.9 -46,17 C 44.3,103.6 29,98 9,96.4 z"/></g><g id="g82" transform="matrix(1.3212917,0,0,1.0301885,-18.237131,-15.538281)"><path id="path84" fill="#cbc8c1" d="m 70,29.8 c -2.3,0.8 -4.7,1.8 -7,3 v 56.6 l 4,-5 3,2 V 29.8 z"/></g><g id="g86" transform="matrix(1.3212918,0,0,1.0228716,-16.814268,-14.968378)"><linearGradient id="SVGID_8_" x1="100782.68" x2="102421.08" y1="-115874.79" y2="-115874.79" gradientTransform="matrix(6e-4,0.0342,-0.036,7e-4,-4167.9482,-3334.4929)" gradientUnits="userSpaceOnUse"><stop id="stop89" offset="0" stop-color="#F58C6F"/><stop id="stop91" offset="1" stop-color="#EB2D09"/></linearGradient><path id="path93" fill="url(#linearGradient3182)" d="m 68,29.4 -7,3 v 56 l 4,-5 3,2 v -56 z"/></g></svg>